<?xml version="1.0" encoding="UTF-8"?>
<svg class="social-icon" viewBox="0 0 102 100" version="1.1" xmlns="http://www.w3.org/2000/svg" xmlns:xlink="http://www.w3.org/1999/xlink">
    <!-- Generator: Sketch 41.2 (35397) - http://www.bohemiancoding.com/sketch -->
    <title>gh-icon</title>
    <desc>Created with Sketch.</desc>
    <defs></defs>
    <g id="Page-1" stroke="none" stroke-width="1" fill="none" fill-rule="evenodd">
        <g id="gh-icon" fill="#000000">
            <g id="Page-1">
                <path d="M51,0 C22.8225,0 0,22.8443878 0,51.0204082 C0,73.565051 14.6115,92.684949 34.87125,99.4260204 C37.42125,99.9043367 38.358375,98.3290816 38.358375,96.9706633 C38.358375,95.7589286 38.31375,92.5510204 38.294625,88.2971939 C24.103875,91.377551 21.114,81.4540816 21.114,81.4540816 C18.7935,75.5612245 15.44025,73.9923469 15.44025,73.9923469 C10.818375,70.8290816 15.79725,70.8928571 15.79725,70.8928571 C20.916375,71.25 23.606625,76.1479592 23.606625,76.1479592 C28.158375,83.9477041 35.547,81.6964286 38.460375,80.3890306 C38.919375,77.0918367 40.232625,74.8405612 41.6925,73.565051 C30.364125,72.2895408 18.462,67.9017857 18.462,48.3545918 C18.462,42.7869898 20.43825,38.2334184 23.708625,34.6619898 C23.134875,33.3737245 21.413625,28.1887755 24.154875,21.1607143 C24.154875,21.1607143 28.426125,19.7895408 38.179875,26.3903061 C42.259875,25.255102 46.594875,24.6938776 50.929875,24.6683673 C55.264875,24.6938776 59.599875,25.255102 63.679875,26.3903061 C73.369875,19.7895408 77.641125,21.1607143 77.641125,21.1607143 C80.382375,28.1887755 78.661125,33.3737245 78.151125,34.6619898 C81.402375,38.2334184 83.378625,42.7869898 83.378625,48.3545918 C83.378625,67.9528061 71.457375,72.2704082 60.109875,73.5267857 C61.894875,75.057398 63.552375,78.182398 63.552375,82.9655612 C63.552375,89.7895408 63.488625,95.2742347 63.488625,96.932398 C63.488625,98.2716837 64.381125,99.8660714 66.994875,99.3558673 C87.40125,92.6658163 102,73.5331633 102,51.0204082 C102,22.8443878 79.16475,0 51,0" id="Shape"></path>
            </g>
        </g>
    </g>
</svg>