<?xml version="1.0" encoding="UTF-8"?>
<svg class="social-icon" viewBox="0 0 85 100" version="1.1" xmlns="http://www.w3.org/2000/svg" xmlns:xlink="http://www.w3.org/1999/xlink">
    <!-- Generator: Sketch 41.2 (35397) - http://www.bohemiancoding.com/sketch -->
    <title>so-icon</title>
    <desc>Created with Sketch.</desc>
    <defs></defs>
    <g id="Page-1" stroke="none" stroke-width="1" fill="none" fill-rule="evenodd">
        <g id="so-icon">
            <g id="Page-1">
                <g id="so-icon">
                    <polygon id="Shape" fill="#BCBBBB" points="71.6756756 90.5876952 71.6756756 63.9577594 80.5202703 63.9577594 80.5202703 99.426079 0.689189189 99.426079 0.689189189 63.9577594 9.53378378 63.9577594 9.53378378 90.5876952"></polygon>
                    <path d="M19.2972973,61.4325069 L62.7162162,70.5004591 L64.5540541,61.7768595 L21.1351351,52.7089073 L19.2972973,61.4325069 Z M25.0405405,40.7713499 L65.2432433,59.4811754 L68.9189189,51.446281 L28.7162162,32.6216712 L25.0405405,40.7713499 Z M36.1824325,21.0284665 L70.2972973,49.3801653 L75.9256756,42.6078972 L41.8108108,14.2561984 L36.1824325,21.0284665 Z M58.2364865,0.0229568411 L51.1148649,5.3030303 L77.5337838,40.886134 L84.6554054,35.6060606 L58.2364865,0.0229568411 Z M18.3783784,81.6345271 L62.7162162,81.6345271 L62.7162162,72.7961432 L18.3783784,72.7961432 L18.3783784,81.6345271 Z" id="Shape" fill="#F48023"></path>
                </g>
            </g>
        </g>
    </g>
</svg>