<?xml version="1.0" encoding="UTF-8"?>
<svg class="social-icon" viewBox="0 0 123 100" version="1.1" xmlns="http://www.w3.org/2000/svg" xmlns:xlink="http://www.w3.org/1999/xlink">
    <!-- Generator: Sketch 41.2 (35397) - http://www.bohemiancoding.com/sketch -->
    <title>tw-icon</title>
    <desc>Created with Sketch.</desc>
    <defs></defs>
    <g id="Page-1" stroke="none" stroke-width="1" fill="none" fill-rule="evenodd">
        <g id="tw-icon" fill="#1DA1F2">
            <g id="Page-1">
                <g id="tw-icon">
                    <path d="M38.7974633,99.525125 C84.9759306,99.525125 110.233604,61.422125 110.233604,28.379375 C110.233604,27.297125 110.233604,26.21975 110.160181,25.14725 C115.073832,21.6075654 119.315379,17.224787 122.686224,12.204125 C118.104008,14.2262836 113.24313,15.5524146 108.265855,16.13825 C113.507038,13.0132875 117.429709,8.09826338 119.30385,2.307875 C114.375458,5.22046963 108.983673,7.27312113 103.361167,8.37725 C95.578685,0.135547125 83.2123936,-1.88163862 73.1965999,3.45681463 C63.180806,8.795268 58.006389,20.1617129 60.5748643,31.1825 C40.3877948,30.1745915 21.5795411,20.678451 8.83089796,5.057375 C2.16709521,16.482643 5.57083655,31.09894 16.6039959,38.4365 C12.6084924,38.3185618 8.70010327,37.2451143 5.20867347,35.30675 L5.20867347,35.623625 C5.21194389,47.5263908 13.6364713,57.7782339 25.3511786,60.135125 C21.6548923,61.1390828 17.7767185,61.285841 14.0145949,60.564125 C17.3037114,70.7500613 26.7294573,77.7279463 37.4709459,77.928875 C28.5805142,84.8876063 17.5979515,88.6652225 6.29044592,88.653875 C4.29285551,88.6500563 2.29720812,88.5295987 0.31377551,88.293125 C11.7954241,95.6313488 25.1549588,99.523745 38.7974633,99.505625" id="Shape"></path>
                </g>
            </g>
        </g>
    </g>
</svg>